<?xml version="1.0" encoding="UTF-8"?>
<svg id="Camada_2" data-name="Camada 2" xmlns="http://www.w3.org/2000/svg" viewBox="0 0 1392.55 1281.54">
  <defs>
    <style>
      .cls-1 {
        fill: #092183;
      }

      .cls-2 {
        fill: #fff;
        stroke: #fff;
        stroke-miterlimit: 10;
        stroke-width: 5.67px;
      }
    </style>
  </defs>
  <g id="Camada_1-2" data-name="Camada 1">
    <path class="cls-2" d="M1131.43,183.71c-123.36,12.81-263.76,50.03-417.32,110.6-4.07,1.61-8.3,3.28-12.69,5.02-64.67,25.6-162.41,64.28-282.35,95.48-75.47,19.63-165.06,32.58-239.65,34.64-56.26,1.54-128.19-2.31-165.26-27.74v679.85c45.93,14.84,125.01,28.93,246.95,16.26,123.36-12.81,263.76-50.03,417.32-110.6,4.07-1.61,8.3-3.28,12.69-5.02,64.67-25.6,162.41-64.28,282.35-95.48,75.47-19.63,165.06-32.58,239.65-34.64,56.26-1.55,128.18,2.31,165.26,27.74V199.98c-45.93-14.84-125.01-28.93-246.95-16.26Z"/>
    <g>
      <g>
        <path class="cls-1" d="M150.3,842.03c-2.24,4.14-5.74,7.47-10.51,10.01-4.77,2.53-10.79,3.8-18.05,3.8h-14.82v33.95h-17.74v-88.42h32.56c6.84,0,12.67,1.18,17.48,3.55,4.81,2.37,8.42,5.62,10.83,9.75,2.41,4.14,3.61,8.83,3.61,14.06,0,4.73-1.12,9.16-3.36,13.3ZM131.86,838.17c2.36-2.24,3.55-5.38,3.55-9.44,0-8.61-4.81-12.92-14.44-12.92h-14.06v25.72h14.06c4.9,0,8.53-1.12,10.89-3.36Z"/>
        <path class="cls-1" d="M220.41,872.94h-35.22l-5.83,16.85h-18.62l31.8-88.55h20.65l31.8,88.55h-18.75l-5.83-16.85ZM215.6,858.76l-12.79-36.99-12.79,36.99h25.59Z"/>
        <path class="cls-1" d="M318.02,842.03c-2.24,4.14-5.74,7.47-10.51,10.01-4.77,2.53-10.79,3.8-18.05,3.8h-14.82v33.95h-17.74v-88.42h32.56c6.84,0,12.67,1.18,17.48,3.55,4.81,2.37,8.42,5.62,10.83,9.75,2.41,4.14,3.61,8.83,3.61,14.06,0,4.73-1.12,9.16-3.36,13.3ZM299.59,838.17c2.36-2.24,3.55-5.38,3.55-9.44,0-8.61-4.81-12.92-14.44-12.92h-14.06v25.72h14.06c4.9,0,8.53-1.12,10.89-3.36Z"/>
        <path class="cls-1" d="M351.65,815.68v22.17h29.77v14.06h-29.77v23.44h33.57v14.44h-51.31v-88.55h51.31v14.44h-33.57Z"/>
        <path class="cls-1" d="M419.04,875.73h29.14v14.06h-46.87v-88.42h17.74v74.36Z"/>
        <path class="cls-1" d="M545.03,806.82c7.05,3.63,12.5,8.81,16.34,15.52,3.84,6.71,5.76,14.5,5.76,23.37s-1.92,16.62-5.76,23.24c-3.84,6.63-9.29,11.76-16.34,15.39-7.05,3.63-15.22,5.45-24.51,5.45h-30.91v-88.42h30.91c9.29,0,17.46,1.82,24.51,5.45ZM541.42,867.12c5.07-5.07,7.6-12.2,7.6-21.41s-2.53-16.41-7.6-21.6c-5.07-5.19-12.25-7.79-21.54-7.79h-12.54v58.4h12.54c9.29,0,16.47-2.53,21.54-7.6Z"/>
        <path class="cls-1" d="M598.17,815.68v22.17h29.77v14.06h-29.77v23.44h33.57v14.44h-51.31v-88.55h51.31v14.44h-33.57Z"/>
        <path class="cls-1" d="M150.3,957.7c-2.24,4.14-5.74,7.47-10.51,10.01-4.77,2.53-10.79,3.8-18.05,3.8h-14.82v33.95h-17.74v-88.42h32.56c6.84,0,12.67,1.18,17.48,3.55,4.81,2.37,8.42,5.62,10.83,9.75,2.41,4.14,3.61,8.83,3.61,14.06,0,4.73-1.12,9.16-3.36,13.3ZM131.86,953.84c2.36-2.24,3.55-5.38,3.55-9.44,0-8.61-4.81-12.92-14.44-12.92h-14.06v25.72h14.06c4.9,0,8.53-1.12,10.89-3.36Z"/>
        <path class="cls-1" d="M220.41,988.61h-35.22l-5.83,16.85h-18.62l31.8-88.55h20.65l31.8,88.55h-18.75l-5.83-16.85ZM215.6,974.42l-12.79-36.99-12.79,36.99h25.59Z"/>
        <path class="cls-1" d="M302.5,1005.46l-19.51-34.46h-8.36v34.46h-17.74v-88.42h33.19c6.84,0,12.67,1.2,17.48,3.61,4.81,2.41,8.42,5.66,10.83,9.75,2.41,4.1,3.61,8.68,3.61,13.74,0,5.83-1.69,11.08-5.07,15.77-3.38,4.69-8.4,7.92-15.08,9.69l21.16,35.85h-20.52ZM274.63,957.7h14.82c4.81,0,8.4-1.16,10.77-3.48,2.36-2.32,3.55-5.55,3.55-9.69s-1.18-7.2-3.55-9.44c-2.37-2.24-5.95-3.36-10.77-3.36h-14.82v25.97Z"/>
        <path class="cls-1" d="M355.83,931.35v22.17h29.77v14.06h-29.77v23.44h33.57v14.44h-51.31v-88.55h51.31v14.44h-33.57Z"/>
        <path class="cls-1" d="M460.91,922.48c7.05,3.63,12.5,8.81,16.34,15.52,3.84,6.71,5.76,14.5,5.76,23.37s-1.92,16.62-5.76,23.24c-3.84,6.63-9.29,11.76-16.34,15.39-7.05,3.63-15.22,5.45-24.51,5.45h-30.91v-88.42h30.91c9.29,0,17.46,1.82,24.51,5.45ZM457.3,982.78c5.07-5.07,7.6-12.2,7.6-21.41s-2.53-16.41-7.6-21.6c-5.07-5.19-12.25-7.79-21.54-7.79h-12.54v58.4h12.54c9.29,0,16.47-2.53,21.54-7.6Z"/>
        <path class="cls-1" d="M514.05,931.35v22.17h29.77v14.06h-29.77v23.44h33.57v14.44h-51.31v-88.55h51.31v14.44h-33.57Z"/>
      </g>
      <g>
        <path class="cls-1" d="M132.08,530.38c.38-32.93-7.97-44.63-31.86-50.27-9.86-2.17-14.03-4.77-14.03-9.1,0-5.63,1.9-6.93,7.97-6.93,8.72,0,47.79,3.47,56.52,3.47,14.03,0,29.97-.87,44-2.6,3.41-.43,5.69-.43,6.83-.43,4.93,0,7.97,2.6,7.97,6.93,0,3.47-2.28,4.77-8.72,6.07-21.62,4.33-24.66,16.47-25.04,61.97-.38,26-.38,54.17-.38,78l-.38,86.23c0,32.5,6.07,38.13,42.48,38.13,32.62,0,47.79-4.33,68.66-19.07,12.52-8.67,20.1-18.2,26.55-29.9,2.66-4.33,3.79-5.2,6.07-5.2,3.41,0,4.55,2.17,4.55,7.37,0,19.5-14.79,68.47-56.14,68.47-3.03,0-8.35-.43-16.69-1.3-26.93-2.6-77.76-4.77-88-4.77-15.93,0-31.1.87-45.52,2.17-4.55.43-6.83.87-8.72.87-6.07,0-14.75-.95-14.75-5.29,0-3.03,1.23-5.3,5.78-7.04,5.31-2.17,14.28-3.71,19.21-8.48,4.55-5.63,8.72-11.7,10.24-39.87.76-10.83,1.52-54.17,1.9-72.8l1.52-96.63Z"/>
        <path class="cls-1" d="M433.64,641.75v19.07c.38,63.7.76,81.03,34.9,84.93,9.48,1.3,12.9,3.47,12.9,8.67,0,4.77-2.28,6.07-11,6.07-4.93,0-18.21-.87-31.1-1.73-13.28-.43-26.55-1.3-31.48-1.3-15.17,0-25.79.43-39.83,2.17h-5.69c-5.31,0-7.21-1.3-7.21-5.63,0-4.77,1.9-6.5,8.72-8.23,14.03-3.47,20.1-14.3,22-26.87,3.03-19.5,3.41-134.76,3.41-193.26-.76-31.2-7.59-40.73-32.24-45.07-9.86-1.73-14.03-4.33-14.03-9.1s2.28-6.5,7.21-6.5c8.72,0,47.04,2.6,55,2.6,8.72,0,33-1.3,45.14-2.6l9.1-.43c4.93,0,7.97,3.03,7.97,8.23,0,4.77-2.66,6.5-10.24,7.37-6.83.87-9.1,1.73-13.66,5.63-4.55,6.5-8.35,10.83-8.72,65.87l-1.14,90.13Z"/>
        <path class="cls-1" d="M538.71,531.68c.76-34.23-7.21-45.07-33.38-50.7-8.35-1.73-11-3.9-11-8.67,0-3.9,2.66-6.07,6.45-6.07,5.31,0,27.69,1.3,32.24,1.3,25.79,0,40.21-.87,64.86-2.6,12.14-.87,15.93-1.3,22.38-1.3,111.14,0,169.18,58.07,169.18,138.66s-61.07,159.03-148.32,159.03c-6.45,0-23.52-.87-40.59-2.17-17.07-1.3-34.14-1.73-39.83-1.73-19.35,0-35.28.87-47.04,2.6-2.66.43-3.41.43-4.93.43-2.66,0-4.55-3.03-4.55-7.37,0-3.47,1.52-4.77,6.45-5.2,18.21-1.73,20.48-16.03,22-30.33,1.9-16.47,3.03-73.23,3.79-98.36l2.28-87.53ZM582.33,662.98c0,25.13,1.14,49.83,2.66,55.9.76,3.9,1.9,6.07,5.31,10.83,11,10.83,27.69,16.03,48.17,16.03,61.45,0,102.04-50.27,102.04-126.96,0-84.5-47.42-138.66-121.76-138.66-27.69,0-33,6.07-34.14,31.2l-1.14,27.73c-1.14,32.07-1.9,75.83-1.52,90.13l.38,19.93v13.87Z"/>
        <path class="cls-1" d="M930.55,485.75c-18.97,0-24.28.87-30.35,6.07-4.93,7.8-4.93,19.93-4.93,34.67,0,22.1,0,55.03,3.03,64.13,1.14,3.47,10.24,3.47,20.48,3.47,40.97,0,53.48-2.17,63.73-31.2,2.66-7.37,4.93-9.97,7.59-9.97,4.17,0,5.31,5.63,5.31,21.67v35.1l.76,34.67c.38,10.83-.76,14.3-4.17,14.3-3.79,0-5.69-2.6-6.83-10.4-4.17-28.17-18.59-35.1-72.07-35.1-13.28,0-19.72,0-17.83,53.3l.38,10.83c1.9,56.77,3.03,64.13,36.04,64.13,51.59,0,94.07-19.93,105.83-50.27,1.9-4.33,3.03-6.07,5.31-6.07,3.03,0,4.55,3.9,4.55,10.83,0,16.47-7.59,37.7-18.21,49.83-11.38,13-27.69,17.77-53.11,17.77-7.59,0-28.83-.87-49.31-2.6-20.86-1.73-41.35-3.47-48.55-3.47-13.28,0-24.66,1.3-38.69,3.9-6.45,1.3-9.48,1.73-12.52,1.73-5.31,0-7.97-2.17-7.97-6.5,0-3.03,2.28-5.2,8.72-8.23,22.76-10.83,23.14-30.77,23.14-107.47v-123.93c0-23.83-8.72-32.93-32.62-37.7-9.1-1.73-11.38-3.47-11.38-8.23,0-4.33,2.66-6.5,7.21-6.5,1.14,0,2.66,0,6.07.43,22,2.6,50.83,1.73,77.76,1.73h60.69c23.52,0,26.17-.43,36.42-.87l22-1.3h5.69c.76-.43,1.14-.43,1.14-.43,4.93,0,6.45,30.33,6.45,42.47,0,21.67-2.28,30.77-7.59,30.77-4.55,0-6.07-2.6-6.07-9.53,0-10.83,0-15.6-8.72-28.17-14.41-13.87-41.73-13.87-66.76-13.87h-10.62Z"/>
        <path class="cls-1" d="M1234.01,623.11c17.07,33.37,31.48,63.7,45.52,89.7,5.69,10.4,14.41,24.27,23.14,24.27,1.52,0,8.35-1.3,9.86-1.3,3.41,0,5.69,2.6,5.69,6.93,0,10.83-20.1,22.1-39.07,22.1-13.28,0-36.04,0-77.38-100.97-8.72-21.67-13.66-32.5-19.72-38.13-6.07-5.2-14.03-5.2-28.83-5.2-10.24,0-10.24.43-11.38,18.2l-.38,42.9.38,31.63c.38,18.63,8.72,28.6,26.93,32.07,8.35,1.73,11.76,3.9,11.76,8.67,0,4.33-2.66,6.93-7.21,6.93l-7.59-.87c-12.9-1.3-21.62-3.03-33.76-2.6l-59.17,2.6c-5.31.43-9.48-3.47-9.48-7.8,0-3.47,1.9-5.63,7.59-7.8,21.62-8.23,23.52-26,24.28-58.5l2.66-130,.38-32.93c.38-27.73-7.21-38.13-29.97-42.03-11-1.73-14.79-5.2-14.79-11.27,0-5.2,2.28-7.37,7.97-7.37,11.38,0,42.1,3.47,53.86,3.9,9.1.43,55-1.73,59.17-1.73,35.66,0,58.8,5.63,75.86,19.07,17.07,13.43,27.31,35.53,27.31,58.93,0,45.07-32.62,62.4-48.55,71.07l4.93,9.53ZM1141.45,584.98c-.76,15.17,8.72,19.07,38.31,19.07,15.55,0,52.73.43,52.73-50.7,0-23.4-14.41-71.07-65.62-71.07-17.45,0-21.24,3.9-22,24.7l-3.41,78Z"/>
      </g>
      <path class="cls-1" d="M1392.55,189.79l-4.8-1.64c-66.65-22.72-155.79-29.13-257.79-18.54-124.64,12.95-266.3,50.47-421.05,111.52-4.04,1.59-8.24,3.25-12.59,4.98V0l-13.58,31.06c-51.46,117.7-144.43,197-310.88,265.14-85.43,34.98-212.54,43.32-280.84,47.8-20.93,1.37-34.76,2.28-41.12,3.55-34.57,6.9-45.57,19.07-48.71,28.07-.37,1.06-.64,2.13-.82,3.2h-.37v712.93l4.8,1.64c66.65,22.72,155.79,29.13,257.79,18.54,124.64-12.95,266.3-50.47,421.05-111.52,4.04-1.59,8.24-3.25,12.59-4.98v286.11l13.58-31.06c51.46-117.7,144.43-197,310.87-265.14,85.43-34.98,212.54-43.32,280.84-47.8,20.93-1.37,34.76-2.28,41.12-3.55,34.57-6.9,45.57-19.07,48.71-28.07.37-1.06.64-2.13.82-3.2h.37V189.79ZM691.12,982.21c-4.39,1.74-8.62,3.41-12.69,5.02-153.55,60.58-293.96,97.79-417.32,110.6-121.94,12.66-201.01-1.43-246.95-16.26V401.72c37.07,25.42,109,29.28,165.26,27.74,74.59-2.06,164.17-15,239.65-34.64,119.94-31.2,217.67-69.89,282.35-95.48,4.39-1.74,8.62-3.41,12.69-5.02,153.55-60.58,293.96-97.79,417.32-110.6,121.94-12.67,201.01,1.43,246.95,16.26v679.85c-37.07-25.42-109-29.29-165.26-27.74-74.59,2.05-164.18,15-239.65,34.64-119.94,31.2-217.67,69.89-282.35,95.48Z"/>
    </g>
  </g>
</svg>